<?xml version="1.0" encoding="UTF-8"?>
<svg viewBox="0 0 387.75879 580.87775" xmlns="http://www.w3.org/2000/svg" xmlns:xlink="http://www.w3.org/1999/xlink">
 <defs>
  <linearGradient id="f">
   <stop stop-color="#fa3f02" offset="0"/>
   <stop stop-color="#fff" offset="1"/>
  </linearGradient>
  <linearGradient id="a">
   <stop stop-color="#fff" offset="0"/>
   <stop stop-color="#fff" stop-opacity="0" offset=".5"/>
   <stop stop-opacity=".40206" offset="1"/>
  </linearGradient>
  <linearGradient id="c">
   <stop stop-color="#25fa02" offset="0"/>
   <stop stop-color="#2ecec9" offset="1"/>
  </linearGradient>
  <linearGradient id="d">
   <stop stop-color="#fa02ca" offset="0"/>
   <stop stop-color="#fa0202" offset="1"/>
  </linearGradient>
  <linearGradient id="h">
   <stop stop-color="#02d4fa" offset="0"/>
   <stop stop-color="#023afa" offset="1"/>
  </linearGradient>
  <linearGradient id="b">
   <stop stop-color="#fa8102" offset="0"/>
   <stop stop-color="#fae902" offset="1"/>
  </linearGradient>
  <linearGradient id="z" x1="-1286.8" x2="-1217.6" y1="257.31" y2="207.84" gradientUnits="userSpaceOnUse">
   <stop stop-color="#e1e601" offset="0"/>
   <stop stop-color="#fdffbb" offset="1"/>
  </linearGradient>
  <linearGradient id="y" x1="507.79" x2="545.15" y1="649.73" y2="765.55" gradientUnits="userSpaceOnUse">
   <stop offset="0"/>
   <stop stop-opacity="0" offset="1"/>
  </linearGradient>
  <linearGradient id="t" x1="343.48" x2="538.24" gradientUnits="userSpaceOnUse" spreadMethod="reflect">
   <stop stop-color="#26c700" offset="0"/>
   <stop stop-color="#9ae987" offset="1"/>
  </linearGradient>
  <linearGradient id="s" x1="519.57" x2="544.47" gradientUnits="userSpaceOnUse">
   <stop stop-color="#624811" offset="0"/>
   <stop stop-color="#8e6100" offset=".4108"/>
   <stop stop-color="#8e6100" offset=".79"/>
   <stop stop-color="#624811" offset="1"/>
  </linearGradient>
  <linearGradient id="aj" x1="-685.24" x2="-676.14" y1="236.41" y2="251.57" gradientUnits="userSpaceOnUse" xlink:href="#b" spreadMethod="reflect"/>
  <linearGradient id="ai" x1="-674.55" x2="-656.59" y1="259.27" y2="251.57" gradientUnits="userSpaceOnUse" xlink:href="#h" spreadMethod="reflect"/>
  <linearGradient id="ah" x1="-663" x2="-676.14" y1="241.62" y2="251.57" gradientUnits="userSpaceOnUse" xlink:href="#d" spreadMethod="repeat"/>
  <linearGradient id="ag" x1="-674.55" x2="-611.9" y1="259.27" y2="262.33" gradientUnits="userSpaceOnUse" xlink:href="#b" spreadMethod="reflect"/>
  <linearGradient id="g" x1="-680.1" x2="-637.43" y1="263.71" y2="240.45" gradientUnits="userSpaceOnUse" xlink:href="#d" spreadMethod="reflect"/>
  <linearGradient id="af" x1="-711.13" x2="-646.32" y1="267.87" y2="251.57" gradientUnits="userSpaceOnUse" xlink:href="#h" spreadMethod="reflect"/>
  <linearGradient id="ae" x1="-657.39" x2="-646.32" y1="245.92" y2="251.57" gradientUnits="userSpaceOnUse" xlink:href="#c" spreadMethod="reflect"/>
  <linearGradient id="ad" x1="-670.22" x2="-641.19" y1="235.66" y2="265.68" gradientUnits="userSpaceOnUse" xlink:href="#c" spreadMethod="reflect"/>
  <linearGradient id="ac" x1="-668.96" x2="-654.66" y1="253.95" y2="242.04" gradientUnits="userSpaceOnUse" xlink:href="#b" spreadMethod="reflect"/>
  <linearGradient id="ab" x1="-647.25" x2="-676.14" y1="264.78" y2="251.57" gradientUnits="userSpaceOnUse" xlink:href="#d" spreadMethod="repeat"/>
  <linearGradient id="aa" x1="-663" x2="-672.46" y1="231.33" y2="251.57" gradientUnits="userSpaceOnUse" xlink:href="#c" spreadMethod="reflect"/>
  <linearGradient id="x" x1="-418.63" x2="-411.46" y1="231.81" y2="255.02" gradientTransform="matrix(-.63673 .32605 .20098 1.033 151.96 505.95)" gradientUnits="userSpaceOnUse" xlink:href="#f" spreadMethod="reflect"/>
  <linearGradient id="w" x1="-418.63" x2="-411.46" y1="231.81" y2="255.02" gradientTransform="matrix(-.55944 .17658 .17658 .55944 197.6 449.17)" gradientUnits="userSpaceOnUse" xlink:href="#f" spreadMethod="reflect"/>
  <linearGradient id="v" x1="-418.63" x2="-409.38" y1="231.81" y2="237.88" gradientTransform="matrix(.95855 0 0 .38166 939.96 329.06)" gradientUnits="userSpaceOnUse" xlink:href="#b" spreadMethod="reflect"/>
  <linearGradient id="u" x1="529.53" x2="534.95" y1="322" y2="325.56" gradientUnits="userSpaceOnUse" xlink:href="#b" spreadMethod="reflect"/>
  <radialGradient id="e" cx="-656.33" cy="243.79" r="43.372" gradientUnits="userSpaceOnUse" xlink:href="#a"/>
  <radialGradient id="r" cx="-654.66" cy="244.27" r="38.578" gradientUnits="userSpaceOnUse" xlink:href="#a"/>
  <radialGradient id="q" cx="-656.59" cy="245.16" r="42.332" gradientUnits="userSpaceOnUse" xlink:href="#a"/>
  <radialGradient id="p" cx="-657.91" cy="247.4" r="33.352" gradientUnits="userSpaceOnUse" xlink:href="#a"/>
  <radialGradient id="o" cx="-657.44" cy="244.49" r="38.409" gradientUnits="userSpaceOnUse" xlink:href="#a"/>
  <radialGradient id="n" cx="-659.67" cy="246.33" r="37.164" gradientUnits="userSpaceOnUse" xlink:href="#a"/>
  <radialGradient id="m" cx="-657.23" cy="243.23" r="40.453" gradientUnits="userSpaceOnUse" xlink:href="#a"/>
  <radialGradient id="l" cx="-657.23" cy="243.87" r="42.336" gradientUnits="userSpaceOnUse" xlink:href="#a"/>
  <radialGradient id="k" cx="-654.66" cy="245.02" r="42.324" gradientUnits="userSpaceOnUse" xlink:href="#a"/>
  <radialGradient id="j" cx="-658.16" cy="245.65" r="38.765" gradientUnits="userSpaceOnUse" xlink:href="#a"/>
  <radialGradient id="i" cx="-655.39" cy="243.96" r="44.009" gradientUnits="userSpaceOnUse" xlink:href="#a"/>
 </defs>
 <g transform="translate(-335.18 -193.66)">
  <path d="m534.82 774.54h30.831c-5.9767-8.5087-17.238-35.999-18.211-41.845-2.5792-5.8681-27.156-3.5944-30.882 0.35873 2.2572 18.247 14.146 36.407 18.263 41.487z" fill="url(#y)"/>
  <path transform="matrix(.38221 0 0 .38221 760.23 590.51)" d="m-629.65 251.57c0 18.42-14.932 33.352-33.352 33.352s-33.352-14.932-33.352-33.352 14.932-33.352 33.352-33.352 33.352 14.932 33.352 33.352z" fill="url(#g)"/>
  <path transform="matrix(.38221 0 0 .38221 760.23 590.51)" d="m-629.65 251.57c0 18.42-14.932 33.352-33.352 33.352s-33.352-14.932-33.352-33.352 14.932-33.352 33.352-33.352 33.352 14.932 33.352 33.352z" fill="url(#e)"/>
  <path d="m516.61 651.68h30.831c-1.4669 29.62-0.87165 55.802 0 81.524-12.829 6.2263-28.54 1.3766-30.831 0 2.4622-25.416 3.058-52.165 0-81.524z" fill="#452f00"/>
  <path d="m519.57 651.96h24.902c-1.1848 29.419-0.70403 55.424 0 80.971-8.4653 3.7041-16.707 2.3836-24.902 0 1.9887-25.244 2.4699-51.811 0-80.971z" fill="url(#s)"/>
  <path d="m527.28 244.65c-12.374 48.042-71.391 85.443-80.635 88.935-4.4203 1.6703 39.66 28.139 44.468 22.53-21.715 37.353-46.328 51.523-71.148 64.033 11.139 13.89 31.666 19.082 47.432 23.716-18.003 23.908-37.04 50.024-80.635 66.405 11.858 12.252 43.123 21.801 58.104 23.123-30.436 48.054-79.251 72.346-109.69 87.75 122.38 68.403 260.63 78.917 378.27 3.5574-34.758-14.105-86.967-38.348-113.84-87.157 14.23-3.4377 46.839-16.366 61.069-27.274-42.136-12.058-66.613-38.097-79.449-64.033 15.811-2.4776 33.4-12.745 49.211-21.345-25.751-12.707-49.545-34.543-70.555-69.37 16.906-3.3123 41.588-13.921 56.919-26.681-30.588-12.365-68.29-48.452-89.528-84.192z" fill="#48a133"/>
  <path d="m527.15 254.14c-11.831 45.934-61.55 74.985-70.388 78.324-4.2264 1.597 37.919 26.066 42.516 20.703-20.762 35.714-42.618 55.131-66.349 67.093 10.65 13.28 31.953 15.729 47.028 20.16-17.213 22.859-35.414 52.859-77.096 68.522 11.338 11.714 40.392 19.167 54.716 20.431-29.1 45.945-74.096 74.202-103.2 88.929 82.032 71.33 259.2 53.067 343.22 5.9168-33.233-13.486-83.15-42.534-108.84-89.201 13.605-3.2868 46.461-13.97 60.066-24.4-40.286-11.529-67.043-43.133-79.316-67.931 15.117-2.3688 37.804-7.9929 52.921-16.215-24.62-12.149-48.209-38.897-68.297-72.195 16.164-3.167 40.601-14.149 55.259-26.348-29.246-11.823-61.939-39.618-82.245-73.789z" fill="url(#t)"/>
  <path d="m497.52 355.98-2.333 3.7457c10.495 7.6938 48.631 18.339 69.766 11.224l-9.3729-14.126c-14.48 2.896-30.322 3.9535-58.06-0.84329z" fill-opacity=".11932"/>
  <path d="m477 444.4-4.5424 5.9691c46.875 7.9902 73.317 15.152 105.93 7.1478l-6.5948-10.198c-24.778 2.8959-47.33 1.8783-94.796-2.9185z" fill-opacity=".11765"/>
  <path d="m470.78 438.92-5.1353 3.8939c46.875 7.9902 87.695 10.261 120.31 2.2564l-1.1104-5.307c-24.778 2.896-66.6 3.9535-114.07-0.84331z" fill="#48a133"/>
  <path d="m490.85 352.87-2.4812 0.63292c27.393 7.9902 52.633 9.6679 71.693 1.6635l-2.5545-1.4531c-14.48 2.896-38.919 3.9535-66.657-0.84331z" fill="#48a133"/>
  <path d="m560.51 287.2c-11.704 13.589-25.691 48.022-89.084 63.674 5.6049 2.4062 11.21 5.3697 16.815 5.9159 48.524-11.84 70.237-51.359 75.768-65.273-1.1552-2.4617-2.7015-3.4135-3.4991-4.3176z" fill="url(#u)"/>
  <path d="m454.95 533.16-4.1349 4.4868c50.263 14.293 110.81 25.074 147.88 13.225l-7.1577-12.125c-31.633 4.0854-132.33-4.7432-136.59-5.5865z" fill-opacity=".11765"/>
  <path d="m452.65 529.31-17.541-0.25644c60.76 14.293 126.79 18.255 171.6 6.4067l-1.4853-5.307c-23.546 15.351-147.43 6e-5 -152.57-0.84328z" fill="#48a133"/>
  <path d="m435.68 480.78c73.356 43.231 124.04 52.588 189.2 48.433-4.6208 3.9817-17.671 7.3091-22.851 9.517-49.838 3.3144-88.664 6.2559-171.35-52.483 0.36061-2.6952 4.2168-2.8826 5.0018-5.467z" fill="url(#w)"/>
  <path d="m589.29 394.9c-16.189 21.418-36.947 42.981-146.82 41.425 9.1583 1.5654 14.543 6.4281 23.702 6.7835 97.314 6.5512 119.8-27.963 128.83-43.304-1.8875-1.6015-4.4142-4.317-5.7175-4.9052z" fill="url(#v)"/>
  <path d="m421.26 562.22c83.491 79.826 157.1 105.91 198.57 103.69-8.1939 3.1597-14.662 4.692-19.72 6.2535-56.723 6.12-105.95-16.957-186.22-100.26 0.41041-4.9767 6.4764-4.9034 7.3698-9.6756z" fill="url(#x)"/>
  <path transform="matrix(.58664 0 0 .58664 1263.7 92.922)" d="m-1207.7 236.17c-0.405 6.1765 12.27 26.391 8.8308 31.537s-26.965 1.1707-32.516 3.9082-16.72 23.821-22.897 23.416-14.496-22.767-19.643-26.206-28.99-2.5693-31.727-8.1209 12.468-23.937 12.873-30.114c0.4051-6.1765-12.27-26.391-8.8308-31.537s26.965-1.1707 32.516-3.9082 16.72-23.821 22.896-23.416 14.496 22.767 19.643 26.206 28.99 2.5693 31.727 8.1209-12.468 23.937-12.874 30.114z" fill="#f4fa02"/>
  <path transform="matrix(.58664 0 0 .58664 1006.9 203.2)" d="m-629.65 251.57c0 18.42-14.932 33.352-33.352 33.352s-33.352-14.932-33.352-33.352 14.932-33.352 33.352-33.352 33.352 14.932 33.352 33.352z" fill="url(#aj)"/>
  <path transform="matrix(.4622 0 0 .4622 741.23 325.22)" d="m-629.65 251.57c0 18.42-14.932 33.352-33.352 33.352s-33.352-14.932-33.352-33.352 14.932-33.352 33.352-33.352 33.352 14.932 33.352 33.352z" fill="url(#ai)"/>
  <path transform="matrix(.4622 0 0 .4622 964.16 412.97)" d="m-629.65 251.57c0 18.42-14.932 33.352-33.352 33.352s-33.352-14.932-33.352-33.352 14.932-33.352 33.352-33.352 33.352 14.932 33.352 33.352z" fill="url(#ah)"/>
  <path transform="matrix(.55109 0 0 .55109 725.45 512.16)" d="m-629.65 251.57c0 18.42-14.932 33.352-33.352 33.352s-33.352-14.932-33.352-33.352 14.932-33.352 33.352-33.352 33.352 14.932 33.352 33.352z" fill="url(#ag)"/>
  <path transform="matrix(.53331 0 0 .53331 801.42 219.58)" d="m-629.65 251.57c0 18.42-14.932 33.352-33.352 33.352s-33.352-14.932-33.352-33.352 14.932-33.352 33.352-33.352 33.352 14.932 33.352 33.352z" fill="url(#g)"/>
  <path transform="matrix(.55109 0 0 .55109 1069.9 510.97)" d="m-629.65 251.57c0 18.42-14.932 33.352-33.352 33.352s-33.352-14.932-33.352-33.352 14.932-33.352 33.352-33.352 33.352 14.932 33.352 33.352z" fill="url(#af)"/>
  <path transform="matrix(.6222 0 0 .6222 1037 293.27)" d="m-629.65 251.57c0 18.42-14.932 33.352-33.352 33.352s-33.352-14.932-33.352-33.352 14.932-33.352 33.352-33.352 33.352 14.932 33.352 33.352z" fill="url(#ae)"/>
  <path transform="matrix(.4622 0 0 .4622 691.42 410.6)" d="m-629.65 251.57c0 18.42-14.932 33.352-33.352 33.352s-33.352-14.932-33.352-33.352 14.932-33.352 33.352-33.352 33.352 14.932 33.352 33.352z" fill="url(#ad)"/>
  <path transform="matrix(.49776 0 0 .49776 866.78 433.08)" d="m-629.65 251.57c0 18.42-14.932 33.352-33.352 33.352s-33.352-14.932-33.352-33.352 14.932-33.352 33.352-33.352 33.352 14.932 33.352 33.352z" fill="url(#ac)"/>
  <path transform="matrix(.63997 0 0 .63997 927.27 307.18)" d="m-629.65 251.57c0 18.42-14.932 33.352-33.352 33.352s-33.352-14.932-33.352-33.352 14.932-33.352 33.352-33.352 33.352 14.932 33.352 33.352z" fill="url(#ab)"/>
  <path transform="matrix(.4622 0 0 .4622 843.21 256.44)" d="m-629.65 251.57c0 18.42-14.932 33.352-33.352 33.352s-33.352-14.932-33.352-33.352 14.932-33.352 33.352-33.352 33.352 14.932 33.352 33.352z" fill="url(#aa)"/>
  <path transform="matrix(.53331 0 0 .53331 801.42 219.58)" d="m-629.65 251.57c0 18.42-14.932 33.352-33.352 33.352s-33.352-14.932-33.352-33.352 14.932-33.352 33.352-33.352 33.352 14.932 33.352 33.352z" fill="url(#e)"/>
  <path transform="matrix(.4622 0 0 .4622 843.21 256.44)" d="m-629.65 251.57c0 18.42-14.932 33.352-33.352 33.352s-33.352-14.932-33.352-33.352 14.932-33.352 33.352-33.352 33.352 14.932 33.352 33.352z" fill="url(#r)"/>
  <path transform="matrix(.4622 0 0 .4622 741.23 325.22)" d="m-629.65 251.57c0 18.42-14.932 33.352-33.352 33.352s-33.352-14.932-33.352-33.352 14.932-33.352 33.352-33.352 33.352 14.932 33.352 33.352z" fill="url(#q)"/>
  <path transform="matrix(.63997 0 0 .63997 927.27 307.18)" d="m-629.65 251.57c0 18.42-14.932 33.352-33.352 33.352s-33.352-14.932-33.352-33.352 14.932-33.352 33.352-33.352 33.352 14.932 33.352 33.352z" fill="url(#p)"/>
  <path transform="matrix(.58664 0 0 .58664 1006.9 203.2)" d="m-629.65 251.57c0 18.42-14.932 33.352-33.352 33.352s-33.352-14.932-33.352-33.352 14.932-33.352 33.352-33.352 33.352 14.932 33.352 33.352z" fill="url(#o)"/>
  <path transform="matrix(.6222 0 0 .6222 1037 293.27)" d="m-629.65 251.57c0 18.42-14.932 33.352-33.352 33.352s-33.352-14.932-33.352-33.352 14.932-33.352 33.352-33.352 33.352 14.932 33.352 33.352z" fill="url(#n)"/>
  <path transform="matrix(.4622 0 0 .4622 964.16 412.97)" d="m-629.65 251.57c0 18.42-14.932 33.352-33.352 33.352s-33.352-14.932-33.352-33.352 14.932-33.352 33.352-33.352 33.352 14.932 33.352 33.352z" fill="url(#m)"/>
  <path transform="matrix(.4622 0 0 .4622 691.42 410.6)" d="m-629.65 251.57c0 18.42-14.932 33.352-33.352 33.352s-33.352-14.932-33.352-33.352 14.932-33.352 33.352-33.352 33.352 14.932 33.352 33.352z" fill="url(#l)"/>
  <path transform="matrix(.49776 0 0 .49776 866.78 433.08)" d="m-629.65 251.57c0 18.42-14.932 33.352-33.352 33.352s-33.352-14.932-33.352-33.352 14.932-33.352 33.352-33.352 33.352 14.932 33.352 33.352z" fill="url(#k)"/>
  <path transform="matrix(.55109 0 0 .55109 725.45 512.16)" d="m-629.65 251.57c0 18.42-14.932 33.352-33.352 33.352s-33.352-14.932-33.352-33.352 14.932-33.352 33.352-33.352 33.352 14.932 33.352 33.352z" fill="url(#j)"/>
  <path transform="matrix(.55109 0 0 .55109 1069.9 510.97)" d="m-629.65 251.57c0 18.42-14.932 33.352-33.352 33.352s-33.352-14.932-33.352-33.352 14.932-33.352 33.352-33.352 33.352 14.932 33.352 33.352z" fill="url(#i)"/>
  <path transform="matrix(.52545 0 0 .52545 1187.2 107.2)" d="m-1207.7 236.17c-0.405 6.1765 12.27 26.391 8.8308 31.537s-26.965 1.1707-32.516 3.9082-16.72 23.821-22.897 23.416-14.496-22.767-19.643-26.206-28.99-2.5693-31.727-8.1209 12.468-23.937 12.873-30.114c0.4051-6.1765-12.27-26.391-8.8308-31.537s26.965-1.1707 32.516-3.9082 16.72-23.821 22.896-23.416 14.496 22.767 19.643 26.206 28.99 2.5693 31.727 8.1209-12.468 23.937-12.874 30.114z" fill="url(#z)"/>
  <path d="m518.63 676.45-0.14166 4.6964c8.2136 7.5852 21.095 11.744 27.897 11.529l-0.52077-16.508c-6.838 1.0459-25.603 0.60221-27.235 0.28292z" fill-opacity=".34091"/>
 </g>
</svg>
